# xmcd
#
# Track frame offsets:
#	150
#	16322
#	32230
#	42457
#	56872
#	69007
#	81170
#	96607
#	106727
#	123382
#	137430
#	152542
#	161620
#	177985
#	193645
#
# Disc length: 2787 seconds
#
# Revision: 1
# Processed by: cddbd v1.5.2PL0 Copyright (c) Steve Scherf et al.
# Submitted via: audiograbber 1.83.01
#
DISCID=c40ae10f
DTITLE=Hemphills - Masters Of Gospel
DYEAR=1900
DGENRE=Gospel
TTITLE0=I Came On Business For The King
TTITLE1=Never A Man Spake Like This Man
TTITLE2=I'm In This Church
TTITLE3=He's Still Working On Me
TTITLE4=Good Things
TTITLE5=I'm Not Perfect (Just Forgiven)
TTITLE6=Well Of Grace
TTITLE7=It Wasn't Raining (When Noah Built The Ark)
TTITLE8=I Claim The Blood
TTITLE9=Master Of The Wind
TTITLE10=God Likes People
TTITLE11=I Can Smile
TTITLE12=Jesus Built This Church On Love
TTITLE13=Ring The Bells
TTITLE14=Let's Have A Revival
EXTD=
EXTT0=
EXTT1=
EXTT2=
EXTT3=
EXTT4=
EXTT5=
EXTT6=
EXTT7=
EXTT8=
EXTT9=
EXTT10=
EXTT11=
EXTT12=
EXTT13=
EXTT14=
PLAYORDER=
